<?xml version="1.0" encoding="UTF-8"?>
<svg xmlns="http://www.w3.org/2000/svg" xmlns:xlink="http://www.w3.org/1999/xlink" width="36px" height="36px" viewBox="0 0 36 36" version="1.1">
<g id="surface1">
<path style=" stroke:none;fill-rule:nonzero;fill:rgb(100%,100%,100%);fill-opacity:1;" d="M 17.898438 0.0078125 C 17.484375 0.0585938 16.988281 0.316406 15.925781 1.027344 C 15.539062 1.292969 15.082031 1.597656 14.910156 1.710938 C 14.726562 1.824219 14.453125 2.011719 14.285156 2.125 C 14.117188 2.238281 13.859375 2.414062 13.703125 2.519531 C 12.332031 3.429688 12.105469 3.671875 11.550781 4.789062 C 11.375 5.144531 11.035156 5.78125 10.785156 6.199219 C 9.207031 8.871094 8.660156 9.808594 8.585938 9.914062 C 8.539062 9.976562 8.398438 10.203125 8.285156 10.414062 C 8.164062 10.625 7.808594 11.21875 7.5 11.746094 C 4.09375 17.5 4.042969 17.613281 4.207031 18.566406 C 4.316406 19.179688 4.484375 19.589844 5.050781 20.566406 C 5.292969 20.988281 5.882812 22.027344 6.355469 22.867188 C 7.238281 24.425781 7.621094 25.078125 8.644531 26.839844 C 8.964844 27.378906 9.414062 28.15625 9.640625 28.574219 C 9.875 28.988281 10.222656 29.59375 10.417969 29.914062 C 10.621094 30.230469 10.820312 30.496094 10.875 30.496094 C 10.960938 30.496094 11.167969 30.148438 11.902344 28.761719 C 11.996094 28.582031 12.089844 28.421875 12.117188 28.398438 C 12.136719 28.375 12.425781 27.847656 12.761719 27.226562 C 13.457031 25.945312 15.089844 22.933594 16.761719 19.859375 C 17.390625 18.703125 18.175781 17.25 18.5 16.628906 C 18.835938 16 19.410156 14.925781 19.792969 14.222656 C 20.167969 13.53125 20.476562 12.949219 20.476562 12.933594 C 20.476562 12.898438 22.054688 9.984375 22.148438 9.855469 C 22.183594 9.800781 22.214844 9.742188 22.214844 9.71875 C 22.214844 9.695312 22.71875 8.757812 23.332031 7.636719 C 24.558594 5.417969 24.625 5.28125 24.625 5.078125 C 24.617188 4.769531 24.351562 4.078125 24.117188 3.792969 C 24.035156 3.699219 22.964844 2.890625 22.917969 2.890625 C 22.878906 2.890625 21.351562 1.839844 20.496094 1.21875 C 20.039062 0.898438 19.652344 0.628906 19.625 0.628906 C 19.59375 0.628906 19.5 0.558594 19.40625 0.46875 C 19.3125 0.378906 19.183594 0.308594 19.125 0.308594 C 19.058594 0.308594 19.003906 0.277344 19.003906 0.242188 C 19.003906 0.113281 18.28125 -0.0390625 17.898438 0.0078125 Z M 10.277344 4.828125 C 10.21875 4.828125 9.871094 5.046875 9.5 5.3125 C 9.132812 5.578125 8.820312 5.796875 8.804688 5.796875 C 8.792969 5.796875 8.382812 6.085938 7.894531 6.441406 C 7.40625 6.796875 7 7.089844 6.984375 7.089844 C 6.964844 7.089844 6.757812 7.234375 6.515625 7.410156 C 6.277344 7.589844 6.0625 7.734375 6.050781 7.734375 C 6.035156 7.734375 5.882812 7.839844 5.707031 7.960938 C 5.535156 8.089844 5.179688 8.332031 4.917969 8.492188 C 4.664062 8.660156 4.289062 8.914062 4.101562 9.035156 C 3.90625 9.164062 3.574219 9.378906 3.367188 9.519531 C 3.152344 9.664062 2.851562 9.855469 2.695312 9.960938 C 1.933594 10.476562 1.785156 10.574219 1.492188 10.769531 C 0.898438 11.164062 0.617188 11.4375 0.386719 11.867188 C 0.0351562 12.527344 0 12.761719 0 14.820312 L 0 16.683594 L 0.589844 16.710938 C 0.910156 16.726562 1.640625 16.742188 2.207031 16.734375 C 3.480469 16.734375 3.539062 16.703125 4.09375 15.726562 C 4.308594 15.34375 4.523438 14.980469 4.570312 14.917969 C 4.617188 14.84375 4.738281 14.628906 4.851562 14.433594 C 5.117188 13.949219 6.175781 12.140625 6.222656 12.09375 C 6.242188 12.066406 6.390625 11.816406 6.550781 11.527344 C 6.71875 11.238281 6.867188 10.988281 6.886719 10.960938 C 6.914062 10.9375 7.058594 10.6875 7.21875 10.398438 C 7.386719 10.105469 7.535156 9.855469 7.554688 9.832031 C 7.582031 9.808594 7.730469 9.558594 7.890625 9.265625 C 8.054688 8.976562 8.210938 8.726562 8.230469 8.703125 C 8.257812 8.679688 8.40625 8.429688 8.566406 8.136719 C 8.726562 7.847656 8.894531 7.574219 8.925781 7.515625 C 8.964844 7.46875 9.167969 7.128906 9.367188 6.765625 C 9.570312 6.410156 9.863281 5.902344 10.011719 5.652344 C 10.339844 5.101562 10.433594 4.828125 10.277344 4.828125 Z M 26.324219 4.988281 C 26.257812 4.988281 26.359375 5.238281 26.671875 5.878906 C 27.011719 6.554688 27.804688 8.046875 27.890625 8.1875 C 27.921875 8.226562 28.15625 8.644531 28.40625 9.113281 C 28.660156 9.574219 29.179688 10.527344 29.570312 11.230469 C 29.957031 11.929688 30.40625 12.746094 30.554688 13.027344 C 31.09375 14.046875 32.328125 16.25 32.453125 16.433594 C 32.539062 16.554688 32.695312 16.644531 32.902344 16.695312 C 33.285156 16.765625 34.835938 16.773438 35.5 16.703125 C 35.914062 16.660156 35.964844 16.636719 35.953125 16.492188 C 35.941406 16.402344 35.925781 15.457031 35.914062 14.394531 C 35.894531 12.292969 35.894531 12.285156 35.476562 11.542969 C 35.164062 10.980469 34.75 10.648438 32.855469 9.445312 C 32.539062 9.242188 32.152344 8.992188 31.984375 8.878906 C 31.816406 8.765625 31.355469 8.460938 30.953125 8.203125 C 30.554688 7.9375 30.03125 7.582031 29.796875 7.402344 C 29.554688 7.234375 29.347656 7.089844 29.335938 7.089844 C 29.320312 7.089844 29 6.863281 28.625 6.585938 C 28.246094 6.320312 27.769531 5.980469 27.570312 5.851562 C 27.367188 5.714844 27.128906 5.546875 27.035156 5.472656 C 26.820312 5.289062 26.371094 4.988281 26.324219 4.988281 Z M 25.425781 5.964844 C 25.375 5.964844 25.265625 6.078125 25.1875 6.222656 C 25.113281 6.371094 24.679688 7.152344 24.230469 7.976562 C 23.773438 8.800781 23.285156 9.6875 23.140625 9.953125 C 23 10.21875 22.484375 11.171875 21.996094 12.078125 C 21.507812 12.972656 21.023438 13.890625 20.910156 14.109375 C 20.804688 14.328125 20.691406 14.515625 20.664062 14.515625 C 20.628906 14.515625 20.609375 14.554688 20.609375 14.59375 C 20.609375 14.644531 20.390625 15.085938 20.113281 15.585938 C 19.847656 16.078125 19.386719 16.945312 19.089844 17.5 C 18.796875 18.058594 18.320312 18.945312 18.035156 19.476562 C 17.746094 20.011719 17.378906 20.703125 17.210938 21.011719 C 16.761719 21.84375 15.90625 23.417969 14.640625 25.734375 C 14.019531 26.863281 13.484375 27.847656 13.449219 27.914062 C 13.417969 27.976562 13.0625 28.640625 12.660156 29.375 C 11.75 31.035156 11.714844 31.140625 11.902344 31.632812 C 12.207031 32.402344 12.558594 32.707031 15.671875 34.804688 C 16.921875 35.644531 17.125 35.765625 17.398438 35.871094 C 17.726562 36.007812 18.316406 36 18.675781 35.871094 C 18.992188 35.757812 19.679688 35.363281 20.207031 35 C 20.375 34.886719 20.917969 34.523438 21.414062 34.191406 C 21.90625 33.863281 22.496094 33.464844 22.71875 33.320312 C 23.921875 32.523438 24.070312 32.3125 26.101562 28.582031 C 26.230469 28.355469 26.617188 27.6875 26.964844 27.089844 C 27.320312 26.5 27.664062 25.910156 27.734375 25.773438 C 27.804688 25.644531 28.015625 25.332031 28.203125 25.089844 C 28.398438 24.847656 28.878906 24.101562 29.28125 23.433594 C 29.683594 22.769531 30.386719 21.617188 30.847656 20.882812 C 31.328125 20.109375 31.71875 19.398438 31.769531 19.203125 C 31.8125 19.027344 31.851562 18.589844 31.851562 18.234375 C 31.851562 17.886719 31.8125 17.492188 31.769531 17.363281 C 31.636719 16.984375 31.296875 16.355469 28.671875 11.625 C 25.425781 5.765625 25.542969 5.957031 25.425781 5.964844 Z M 35.484375 20.519531 C 34.875 20.453125 32.441406 20.542969 32.21875 20.648438 C 32.078125 20.714844 31.933594 20.921875 31.203125 22.070312 C 30.734375 22.804688 29.550781 24.773438 28.992188 25.734375 C 28.746094 26.152344 28.363281 26.792969 28.136719 27.144531 C 27.910156 27.5 27.640625 27.96875 27.542969 28.1875 C 27.433594 28.40625 27.246094 28.710938 27.128906 28.882812 C 27 29.050781 26.765625 29.414062 26.613281 29.695312 C 26.453125 29.980469 26.183594 30.449219 26.015625 30.738281 C 25.84375 31.027344 25.683594 31.367188 25.660156 31.480469 C 25.621094 31.675781 25.628906 31.691406 25.777344 31.652344 C 25.921875 31.601562 26.25 31.398438 27.601562 30.535156 C 28.171875 30.171875 28.359375 30.050781 29.242188 29.472656 C 29.441406 29.332031 29.957031 29.011719 30.378906 28.746094 C 30.800781 28.476562 31.300781 28.15625 31.484375 28.019531 C 31.671875 27.890625 32.03125 27.636719 32.285156 27.476562 C 33.230469 26.855469 33.503906 26.671875 34.027344 26.316406 C 35.851562 25.0625 36 24.75 36 22.0625 L 36 20.582031 Z M 1.878906 20.550781 C 0.902344 20.566406 0.0859375 20.601562 0.0664062 20.617188 C 0.046875 20.640625 0.0195312 21.214844 0.0078125 21.882812 C -0.046875 24.613281 0.222656 25.136719 2.34375 26.476562 C 2.804688 26.765625 3.492188 27.210938 3.882812 27.46875 C 4.269531 27.71875 4.925781 28.148438 5.347656 28.40625 C 5.769531 28.671875 6.195312 28.960938 6.296875 29.050781 C 6.398438 29.132812 6.492188 29.203125 6.511719 29.203125 C 6.539062 29.203125 6.898438 29.4375 7.78125 30.035156 C 7.957031 30.15625 8.230469 30.34375 8.398438 30.457031 C 8.566406 30.570312 8.832031 30.746094 9 30.859375 C 9.160156 30.972656 9.46875 31.175781 9.683594 31.304688 C 9.890625 31.433594 10.078125 31.527344 10.089844 31.503906 C 10.132812 31.457031 9.300781 29.824219 9.160156 29.6875 C 9.140625 29.664062 8.992188 29.414062 8.832031 29.125 C 8.671875 28.832031 8.523438 28.582031 8.5 28.558594 C 8.472656 28.535156 8.171875 28.011719 7.824219 27.386719 C 7.46875 26.765625 6.914062 25.789062 6.585938 25.210938 C 6.25 24.636719 5.773438 23.796875 5.519531 23.351562 C 4.625 21.769531 4.027344 20.824219 3.820312 20.65625 C 3.671875 20.542969 3.433594 20.527344 1.878906 20.550781 Z M 1.878906 20.550781 "/>
</g>
</svg>
