<?xml version="1.0" encoding="UTF-8" standalone="no"?>
<svg
   width="538"
   height="445.65009"
   class="img-fluid"
   viewBox="0 0 5380 4456.5009"
   version="1.1"
   id="svg1063"
   sodipodi:docname="logo.svg"
   inkscape:version="1.2.1 (9c6d41e410, 2022-07-14)"
   xmlns:inkscape="http://www.inkscape.org/namespaces/inkscape"
   xmlns:sodipodi="http://sodipodi.sourceforge.net/DTD/sodipodi-0.dtd"
   xmlns="http://www.w3.org/2000/svg"
   xmlns:svg="http://www.w3.org/2000/svg">
  <defs
     id="defs1067" />
  <sodipodi:namedview
     id="namedview1065"
     pagecolor="#ffffff"
     bordercolor="#000000"
     borderopacity="0.25"
     inkscape:showpageshadow="2"
     inkscape:pageopacity="0.0"
     inkscape:pagecheckerboard="0"
     inkscape:deskcolor="#d1d1d1"
     showgrid="false"
     inkscape:zoom="0.96619935"
     inkscape:cx="199.75174"
     inkscape:cy="131.44285"
     inkscape:window-width="1920"
     inkscape:window-height="1009"
     inkscape:window-x="1912"
     inkscape:window-y="-8"
     inkscape:window-maximized="1"
     inkscape:current-layer="g1061" />
  <g
     fill="#ffffff"
     id="g1061"
     transform="translate(-2600,-101.87307)">
    <path
       id="path1059"
       d="m 5275,103.00781 c -61.9993,6 -136.0014,37.99666 -295,125.9961 -57.9993,32.99972 -125.9922,71.00007 -151.9922,85 C 4801.0078,328.00377 4760,351.00007 4735,365 c -25,13.99993 -63.9922,36.00398 -86.9922,49.00391 C 4443.0092,527.00307 4408.9954,557.00098 4325.9961,695 c -26,43.99972 -77.0039,123.00035 -114.0039,175 -235.9986,330.9979 -317.9844,447 -328.9844,460 -7,8 -28,35.9922 -45,61.9922 -18,26 -71.0124,100.0007 -117.0117,165 -508.9965,712.9951 -516.9922,727.0007 -491.9922,845 16,75.9993 40.9968,127.0085 125.9961,248.0078 36,51.9993 124.0007,181.0007 195,285 131.9993,192.9986 188.9929,273.9936 341.9922,491.9922 47.9993,66.9993 115.0039,163 149.0039,215 35,50.9993 86.9961,126.0163 115.9961,166.0156 30,39 60.0078,71.9922 68.0078,71.9922 13,0 44.0046,-43.0014 154.0039,-215 14,-22 27.9922,-42 31.9922,-45 3,-3 45.9961,-68.0007 95.9961,-145 103.9993,-158.9986 348.0093,-532.0106 598.0078,-913.0078 93.9993,-142.9993 211,-323.0007 260,-400 49.9999,-77.9993 136.0085,-210.989 193.0078,-297.9883 56,-85.9993 101.9922,-158 101.9922,-160 0,-4 236,-364.9961 250,-380.9961 5,-7 10,-14.0117 10,-17.0117 0,-3 74.9929,-118.989 166.9922,-257.9883 C 6269.9908,773.00983 6280,755.99595 6280,730.99609 6279,692.99637 6239.0039,606.99191 6204.0039,571.99219 6192.0039,559.99226 6032,460 6025,460 c -6,0 -233.9929,-129.99268 -361.9922,-206.99219 -67.9993,-39.99972 -126,-73.00781 -130,-73.00781 -5,0 -19.0078,-9.00007 -33.0078,-20 -14,-10.99993 -32.9922,-20 -41.9922,-20 -10,0 -18.0078,-4.00788 -18.0078,-8.00781 0,-15.99993 -108.0007,-34.984324 -165,-28.98438 z M 4135.9961,700 c -9,0 -60.9968,27.00021 -115.9961,60 -54.9993,32.99979 -102.0039,60 -104.0039,60 -2,0 -62.9968,36.00028 -135.9961,80 -72.9993,43.99972 -133.9961,80 -135.9961,80 -3,0 -34,18.00014 -70,40 -36,22 -68,40 -70,40 -2,0 -24.9961,13.0078 -50.9961,28.0078 -26,16 -79.0078,45.9961 -118.0078,65.9961 -38,21 -93.9922,51.9922 -121.9922,66.9922 -29,16 -79,43 -110,60 -32,18 -77,42 -100,55 -113.9993,63.9993 -136,76 -180,100 -88.9993,48.9993 -131,82.9961 -165,135.9961 C 2605.0085,1653.9915 2600,1683.0099 2600,1938.0078 v 230.9961 l 88.0078,2.9883 c 48,2 156.9929,4.0078 241.9922,3.0078 189.9986,0 198.9929,-4.0007 281.9922,-125 32,-47 64.0156,-92 71.0156,-100 7,-9 24.9922,-36 41.9922,-60 40,-59.9993 198,-284 205,-290 3,-3 25.0039,-34 49.0039,-70 25,-36 47,-67 50,-70 4,-3 26,-34 50,-70 25,-36 47,-67 50,-70 4,-3 26,-34 50,-70 25,-36 47.9961,-67 50.9961,-70 4,-3 26,-34 50,-70 24,-36 49.0039,-69.9922 54.0039,-76.9922 6,-6 35.9961,-48.00809 65.9961,-93.0078 30,-43.99972 73.9961,-107.00802 95.9961,-138.00781 48.9993,-67.99951 63,-101.99219 40,-101.99219 z m 2398.0078,20 c -10,0 4.9922,31.00056 51.9922,110 50.9993,83.99944 169.0117,268.9961 182.0117,285.9961 5,5 39.9922,57.0007 76.9922,115 38,56.9993 116.0046,175.0124 174.0039,262.0117 57.9993,86.9993 124.9922,187.9883 146.9922,222.9883 80.9993,125.9993 265.0039,399.0117 284.0039,422.0117 13,15 35.9922,25.9922 66.9922,31.9922 56.9993,9 289.0085,9.9961 388.0078,0.9961 61.9993,-5 70.0078,-7.9961 68.0078,-25.9961 -2,-11 -4.0156,-128.0007 -6.0156,-260 -3,-259.9979 -3.0007,-261.0085 -65,-353.0078 -47,-69.9993 -108.9943,-111.0014 -391.9922,-260 -47,-25 -105,-56 -130,-70 -25,-14 -94.0046,-51.9844 -154.0039,-83.9844 -59.9993,-33 -137.9883,-77.0039 -172.9883,-99.0039 -36,-20.99979 -67.0039,-39.0039 -69.0039,-39.0039 -2,0 -49.9961,-27.9924 -105.9961,-61.99219 C 6821.0085,885.00809 6750,842.99205 6720,826.99219 6690,809.99226 6654,788.99993 6640,780 6608,757.00014 6541.0039,720 6534.0039,720 Z M 6400,840.99609 c -8,0 -23.9961,14.01186 -35.9961,32.01172 -11,17.99986 -76.0085,114.99289 -143.0078,216.99219 -67.9993,101.9993 -140.9883,212 -162.9883,245 -21,33 -98.0163,151.0085 -171.0156,263.0078 C 5813.9929,1709.0071 5742,1823 5725,1850 c -16,27 -32.9922,50 -36.9922,50 -5,0 -8.0078,5 -8.0078,10 0,6 -33.0039,61.0085 -74.0039,123.0078 -40,61 -108.9883,167.9929 -152.9883,236.9922 C 5409.0085,2338.9993 5338,2449.0007 5295,2515 c -43,65.9993 -98.0078,152 -123.0078,190 -66.9993,102.9993 -194.9858,298.0021 -383.9844,585 C 4695.0085,3429.9993 4615,3552 4610,3560 c -5,8 -58.0085,89.9968 -118.0078,180.9961 -135.9993,205.9986 -140.9883,219.0007 -112.9883,280 45,94.9993 97.9918,133.0099 562.9883,393.0078 186.9986,103.9993 217.0078,118.9922 258.0078,131.9922 49,17 136.9961,16 190.9961,0 46.9993,-14 150.0046,-62.9883 229.0039,-107.9883 25,-14 106.0007,-59 180,-100 73.9993,-40.9993 162,-90.0078 195,-108.0078 179.9986,-98.9993 201.9982,-124.995 505.9961,-586.9922 19,-28 77.0046,-111.0007 129.0039,-185 C 6682.9993,3385.0085 6734,3312 6745,3295 c 10,-16 42,-55 70,-85 29,-30 100.9968,-122.0007 160.9961,-205 59.9993,-81.9993 165.0046,-224.9968 234.0039,-315.9961 71.9993,-95.9993 130.0078,-184.0078 138.0078,-208.0078 6,-22 11.9922,-76.0007 11.9922,-120 0,-43 -5.9922,-91.9883 -11.9922,-107.9883 -20,-46.9993 -71.0106,-125.0198 -463.0078,-711.0156 C 6400.0035,815.99717 6417,839.99609 6400,840.99609 Z M 7903.0078,2644.0039 C 7812.0085,2636.0039 7448,2647 7415,2660 c -21,8 -42.9929,33.9968 -151.9922,175.9961 -69.9993,90.9993 -247.0007,335.0046 -330,454.0039 -37,51.9993 -94.0078,131 -128.0078,175 -34,44 -74.0039,102.0039 -89.0039,129.0039 -16,27 -43.9922,64.9961 -61.9922,85.9961 -19,21 -54.0117,65.9961 -77.0117,100.9961 -24,35 -63.9844,93.0039 -88.9844,129.0039 -26,36 -50.0078,77.9922 -53.0078,91.9922 -6,24 -5.0078,26.0156 16.9922,21.0156 22,-6 71.0092,-31.0085 273.0078,-138.0078 84.9993,-45 113.0007,-59.9929 245,-131.9922 30,-17 107.0007,-57 170,-90 62.9993,-33 138,-73 165,-90 28,-16 82,-47.0117 120,-67.0117 140.9993,-76.9993 182.0007,-100.0046 260,-144.0039 272.9979,-154.9993 295,-193.9943 295,-526.9922 v -183.0078 z m -5022.0117,4.0039 c -145.9993,2 -267.9961,5.9883 -270.9961,7.9883 -3,3 -7.0039,74.0124 -9.0039,157.0117 -8,337.9979 32.006,402.9858 349.0039,568.9844 68.9993,36 172.0007,91.0078 230,123.0078 57.9993,31 156.0046,83.9961 219.0039,115.9961 62.9993,33 126.9922,69 141.9922,80 15,10 29.0117,19.0039 32.0117,19.0039 4,0 58.0007,29.0085 190,103.0078 26,15 66.9922,37.9922 91.9922,51.9922 25,14 65,36 90,50 24,14 69.9922,39 101.9922,55 31,16 59.0156,28 61.0156,25 6,-6 -118.0039,-208 -139.0039,-225 -3,-3 -25.0039,-34 -49.0039,-70 -24,-36 -46,-67 -50,-70 -4,-3 -48.9961,-68.0007 -100.9961,-145 -52.9993,-76.9993 -136,-198.0007 -185,-270 C 3534.0046,3154.0007 3463,3049.9993 3425,2995 c -133.9993,-195.9986 -223.0039,-313.0039 -254.0039,-334.0039 -22,-14 -58.0014,-15.9883 -290,-12.9883 z" />
  </g>
</svg>
